<svg width="84" height="84" viewBox="0 0 84 84" fill="none" xmlns="http://www.w3.org/2000/svg">
<g clip-path="url(#clip0_309_5)">
<path d="M50.1128 75.8937C51.3255 77.091 51.1281 79.1908 49.6206 79.9958C36.8708 86.8541 20.6265 84.903 9.86112 74.1374C-0.901727 63.3744 -2.85534 47.1453 4.00539 34.3799C4.80786 32.8878 6.90761 32.6904 8.10747 33.8877L27.2719 53.0524L31.7662 48.558C31.6534 48.1298 31.5047 47.7376 31.5047 47.2761C31.5047 46.2376 31.8127 45.2224 32.3897 44.359C32.9666 43.4955 33.7867 42.8225 34.7461 42.4251C35.7055 42.0277 36.7613 41.9238 37.7798 42.1264C38.7983 42.329 39.7339 42.8291 40.4682 43.5634C41.2025 44.2977 41.7026 45.2333 41.9052 46.2518C42.1078 47.2703 42.0038 48.3261 41.6064 49.2855C41.209 50.2449 40.536 51.065 39.6725 51.6419C38.809 52.2189 37.7939 52.5268 36.7554 52.5268C36.2965 52.5268 35.9017 52.3807 35.4761 52.2653L30.9791 56.7623L50.1128 75.8937ZM83.996 49.722C84.016 50.0797 83.9631 50.4378 83.8403 50.7745C83.7176 51.1111 83.5277 51.4193 83.2821 51.6802C83.0365 51.9411 82.7404 52.1494 82.4118 52.2923C82.0832 52.4352 81.729 52.5097 81.3707 52.5114H76.1021C75.436 52.5094 74.7957 52.2539 74.3114 51.7967C73.8271 51.3395 73.535 50.715 73.4947 50.0501C72.2641 28.801 55.1994 11.572 33.966 10.4234C33.299 10.3879 32.6712 10.097 32.213 9.61102C31.7547 9.12507 31.5011 8.48136 31.5047 7.81342V2.62934C31.5062 2.27096 31.5806 1.91663 31.7234 1.58793C31.8663 1.25924 32.0745 0.963057 32.3355 0.717433C32.5964 0.471808 32.9047 0.281881 33.2414 0.159222C33.5782 0.036562 33.9363 -0.0162627 34.2941 0.00396519C61.0731 1.41408 82.6013 22.9427 83.996 49.722ZM68.244 49.6733C68.2684 50.0359 68.2182 50.3996 68.0966 50.7421C67.9749 51.0846 67.7844 51.3985 67.5367 51.6645C67.289 51.9304 66.9894 52.1428 66.6564 52.2885C66.3235 52.4341 65.9642 52.51 65.6007 52.5114H60.3168C59.6596 52.5066 59.028 52.2565 58.5457 51.8102C58.0634 51.3639 57.7651 50.7536 57.7094 50.0989C56.5762 37.4642 46.5338 27.3089 33.9327 26.2731C33.2734 26.2258 32.6564 25.9305 32.206 25.4468C31.7556 24.963 31.505 24.3266 31.5047 23.6657V18.397C31.5046 18.0332 31.5795 17.6733 31.7247 17.3398C31.8699 17.0062 32.0823 16.7062 32.3486 16.4584C32.6149 16.2106 32.9295 16.0204 33.2726 15.8996C33.6157 15.7787 33.9801 15.7299 34.3429 15.7562C52.41 17.1509 66.8647 31.6059 68.244 49.6733Z" fill="#EBAF00"/>
<path d="M33.7309 73.6415L37.7058 69.6667C37.9718 69.4007 37.9717 68.969 37.7053 68.7026L15.4201 46.4174C15.154 46.1513 14.7225 46.1515 14.4565 46.4174L10.4817 50.3923C10.2156 50.6583 10.2157 51.0897 10.4817 51.3557L32.767 73.641C33.033 73.9077 33.4649 73.9076 33.7309 73.6415Z" fill="#1E1E1E"/>
<path d="M39.1349 65.9804L18.2702 45.1157C17.8402 44.6857 17.6714 44.0586 17.8296 43.4706C17.9864 42.8829 18.4463 42.423 19.0342 42.2661L41.9684 40.1962C42.556 40.0384 43.1836 40.2065 43.6136 40.6366C44.0437 41.0666 44.2121 41.6945 44.0542 42.282L41.9851 65.2171C41.9059 65.5107 41.7522 65.7721 41.5436 65.9807C41.3356 66.1887 41.0743 66.3423 40.7799 66.4223C40.192 66.5791 39.5648 66.4104 39.1349 65.9804Z" fill="#1E1E1E"/>
</g>
<defs>
<clipPath id="clip0_309_5">
<rect width="84" height="84" fill="white"/>
</clipPath>
</defs>
</svg>
