<svg width="700" height="200" viewBox="0 0 700 200" fill="none" xmlns="http://www.w3.org/2000/svg">
<rect width="700" height="200" fill="white"/>
<path d="M137.591 92.5L130.182 94.5909C129.455 92.5 128.424 90.6061 127.091 88.9091C125.758 87.2121 124.015 85.8636 121.864 84.8636C119.742 83.8636 117.106 83.3636 113.955 83.3636C109.227 83.3636 105.348 84.4848 102.318 86.7273C99.2879 88.9697 97.7727 91.8636 97.7727 95.4091C97.7727 98.4091 98.803 100.848 100.864 102.727C102.955 104.576 106.167 106.045 110.5 107.136L121.045 109.727C126.894 111.152 131.273 113.409 134.182 116.5C137.121 119.591 138.591 123.47 138.591 128.136C138.591 132.076 137.5 135.576 135.318 138.636C133.136 141.697 130.091 144.106 126.182 145.864C122.303 147.591 117.803 148.455 112.682 148.455C105.864 148.455 100.242 146.924 95.8182 143.864C91.3939 140.773 88.5606 136.318 87.3182 130.5L95.0909 128.591C96.0909 132.742 98.0455 135.879 100.955 138C103.894 140.121 107.758 141.182 112.545 141.182C117.909 141.182 122.197 139.985 125.409 137.591C128.621 135.167 130.227 132.136 130.227 128.5C130.227 125.682 129.288 123.318 127.409 121.409C125.53 119.47 122.682 118.045 118.864 117.136L107.455 114.409C101.394 112.955 96.9091 110.652 94 107.5C91.0909 104.348 89.6364 100.439 89.6364 95.7727C89.6364 91.9242 90.6818 88.5455 92.7727 85.6364C94.8636 82.697 97.7424 80.3939 101.409 78.7273C105.076 77.0606 109.258 76.2273 113.955 76.2273C120.348 76.2273 125.455 77.6818 129.273 80.5909C133.121 83.4697 135.894 87.4394 137.591 92.5ZM175.9 148.455C169.657 148.455 164.218 146.894 159.581 143.773C154.975 140.652 151.4 136.379 148.854 130.955C146.309 125.53 145.036 119.348 145.036 112.409C145.036 105.409 146.324 99.1818 148.9 93.7273C151.506 88.2727 155.112 84 159.718 80.9091C164.324 77.7879 169.672 76.2273 175.763 76.2273C180.43 76.2273 184.657 77.1364 188.445 78.9545C192.233 80.7424 195.354 83.2727 197.809 86.5455C200.293 89.7879 201.854 93.5758 202.49 97.9091H194.309C193.46 93.9697 191.415 90.6061 188.172 87.8182C184.96 85 180.869 83.5909 175.9 83.5909C171.445 83.5909 167.506 84.803 164.081 87.2273C160.657 89.6212 157.975 92.9697 156.036 97.2727C154.127 101.545 153.172 106.5 153.172 112.136C153.172 117.803 154.112 122.818 155.99 127.182C157.869 131.515 160.506 134.909 163.9 137.364C167.324 139.818 171.324 141.045 175.9 141.045C178.99 141.045 181.809 140.47 184.354 139.318C186.93 138.136 189.081 136.47 190.809 134.318C192.566 132.167 193.748 129.606 194.354 126.636H202.536C201.93 130.848 200.43 134.606 198.036 137.909C195.672 141.182 192.597 143.758 188.809 145.636C185.051 147.515 180.748 148.455 175.9 148.455ZM212.197 147V77.1818H220.06V87.9091H220.651C222.045 84.3939 224.47 81.5606 227.924 79.4091C231.409 77.2273 235.348 76.1364 239.742 76.1364C240.409 76.1364 241.151 76.1515 241.97 76.1818C242.788 76.2121 243.47 76.2424 244.015 76.2727V84.5C243.651 84.4394 243.015 84.3485 242.106 84.2273C241.197 84.1061 240.212 84.0455 239.151 84.0455C235.515 84.0455 232.273 84.8182 229.424 86.3636C226.606 87.8788 224.379 89.9848 222.742 92.6818C221.106 95.3788 220.288 98.4545 220.288 101.909V147H212.197ZM336.784 147V53.9091H344.92V90.5H345.647C346.556 88.4091 347.859 86.2576 349.556 84.0455C351.284 81.8333 353.541 79.9848 356.329 78.5C359.147 76.9848 362.693 76.2273 366.965 76.2273C372.693 76.2273 377.723 77.7424 382.056 80.7727C386.39 83.7727 389.768 87.9848 392.193 93.4091C394.617 98.803 395.829 105.091 395.829 112.273C395.829 119.485 394.617 125.803 392.193 131.227C389.799 136.652 386.435 140.879 382.102 143.909C377.799 146.939 372.799 148.455 367.102 148.455C362.859 148.455 359.314 147.697 356.465 146.182C353.647 144.667 351.375 142.803 349.647 140.591C347.92 138.348 346.587 136.167 345.647 134.045H344.647V147H336.784ZM344.784 112.136C344.784 117.773 345.617 122.773 347.284 127.136C348.981 131.47 351.405 134.879 354.556 137.364C357.738 139.818 361.587 141.045 366.102 141.045C370.738 141.045 374.662 139.773 377.875 137.227C381.087 134.652 383.526 131.182 385.193 126.818C386.859 122.455 387.693 117.561 387.693 112.136C387.693 106.773 386.859 101.939 385.193 97.6364C383.556 93.3333 381.132 89.9242 377.92 87.4091C374.708 84.8636 370.768 83.5909 366.102 83.5909C361.556 83.5909 357.693 84.8182 354.511 87.2727C351.359 89.697 348.95 93.0606 347.284 97.3636C345.617 101.636 344.784 106.561 344.784 112.136ZM407.604 147V53.9091H415.74V90.5H416.467C417.376 88.4091 418.679 86.2576 420.376 84.0455C422.104 81.8333 424.361 79.9848 427.149 78.5C429.967 76.9848 433.513 76.2273 437.785 76.2273C443.513 76.2273 448.543 77.7424 452.876 80.7727C457.21 83.7727 460.588 87.9848 463.013 93.4091C465.437 98.803 466.649 105.091 466.649 112.273C466.649 119.485 465.437 125.803 463.013 131.227C460.619 136.652 457.255 140.879 452.922 143.909C448.619 146.939 443.619 148.455 437.922 148.455C433.679 148.455 430.134 147.697 427.285 146.182C424.467 144.667 422.195 142.803 420.467 140.591C418.74 138.348 417.407 136.167 416.467 134.045H415.467V147H407.604ZM415.604 112.136C415.604 117.773 416.437 122.773 418.104 127.136C419.801 131.47 422.225 134.879 425.376 137.364C428.558 139.818 432.407 141.045 436.922 141.045C441.558 141.045 445.482 139.773 448.695 137.227C451.907 134.652 454.346 131.182 456.013 126.818C457.679 122.455 458.513 117.561 458.513 112.136C458.513 106.773 457.679 101.939 456.013 97.6364C454.376 93.3333 451.952 89.9242 448.74 87.4091C445.528 84.8636 441.588 83.5909 436.922 83.5909C432.376 83.5909 428.513 84.8182 425.331 87.2727C422.179 89.697 419.77 93.0606 418.104 97.3636C416.437 101.636 415.604 106.561 415.604 112.136Z" fill="#1E1E1E"/>
<path d="M484.833 53.9091V147H476.742V53.9091H484.833ZM526.789 148.455C520.274 148.455 514.638 146.939 509.88 143.909C505.122 140.848 501.441 136.621 498.835 131.227C496.259 125.803 494.971 119.561 494.971 112.5C494.971 105.47 496.259 99.2273 498.835 93.7727C501.441 88.2879 505.032 84 509.607 80.9091C514.213 77.7879 519.532 76.2273 525.562 76.2273C529.35 76.2273 533.001 76.9242 536.516 78.3182C540.032 79.6818 543.183 81.7879 545.971 84.6364C548.789 87.4545 551.016 91.0152 552.653 95.3182C554.289 99.5909 555.107 104.652 555.107 110.5V114.5H500.562V107.364H546.835C546.835 102.879 545.925 98.8485 544.107 95.2727C542.319 91.6667 539.819 88.8182 536.607 86.7273C533.425 84.6364 529.744 83.5909 525.562 83.5909C521.138 83.5909 517.244 84.7727 513.88 87.1364C510.516 89.5 507.88 92.6212 505.971 96.5C504.092 100.379 503.138 104.621 503.107 109.227V113.5C503.107 119.045 504.062 123.894 505.971 128.045C507.91 132.167 510.653 135.364 514.198 137.636C517.744 139.909 521.941 141.045 526.789 141.045C530.092 141.045 532.986 140.53 535.471 139.5C537.986 138.47 540.092 137.091 541.789 135.364C543.516 133.606 544.819 131.682 545.698 129.591L553.38 132.091C552.319 135.03 550.577 137.742 548.153 140.227C545.759 142.712 542.759 144.712 539.153 146.227C535.577 147.712 531.456 148.455 526.789 148.455ZM568.382 77.1818L586.382 106.955L604.382 77.1818H613.791L591.336 112.091L613.791 147H604.382L586.382 118.182L568.382 147H559.018L581.2 112.091L559.018 77.1818H568.382Z" fill="#EBAF00"/>
<g clip-path="url(#clip0_310_43)">
<path d="M297.113 138.894C298.325 140.091 298.128 142.191 296.621 142.996C283.871 149.854 267.627 147.903 256.861 137.137C246.098 126.374 244.145 110.145 251.005 97.3799C251.808 95.8878 253.908 95.6904 255.107 96.8877L274.272 116.052L278.766 111.558C278.653 111.13 278.505 110.738 278.505 110.276C278.505 109.238 278.813 108.222 279.39 107.359C279.967 106.496 280.787 105.823 281.746 105.425C282.706 105.028 283.761 104.924 284.78 105.126C285.798 105.329 286.734 105.829 287.468 106.563C288.203 107.298 288.703 108.233 288.905 109.252C289.108 110.27 289.004 111.326 288.606 112.286C288.209 113.245 287.536 114.065 286.672 114.642C285.809 115.219 284.794 115.527 283.755 115.527C283.296 115.527 282.902 115.381 282.476 115.265L277.979 119.762L297.113 138.894ZM330.996 112.722C331.016 113.08 330.963 113.438 330.84 113.774C330.718 114.111 330.528 114.419 330.282 114.68C330.036 114.941 329.74 115.149 329.412 115.292C329.083 115.435 328.729 115.51 328.371 115.511H323.102C322.436 115.509 321.796 115.254 321.311 114.797C320.827 114.339 320.535 113.715 320.495 113.05C319.264 91.801 302.199 74.572 280.966 73.4234C280.299 73.3879 279.671 73.097 279.213 72.611C278.755 72.1251 278.501 71.4814 278.505 70.8134V65.6293C278.506 65.271 278.581 64.9166 278.723 64.5879C278.866 64.2592 279.074 63.9631 279.335 63.7174C279.596 63.4718 279.905 63.2819 280.241 63.1592C280.578 63.0366 280.936 62.9837 281.294 63.004C308.073 64.4141 329.601 85.9427 330.996 112.722ZM315.244 112.673C315.268 113.036 315.218 113.4 315.097 113.742C314.975 114.085 314.784 114.398 314.537 114.664C314.289 114.93 313.989 115.143 313.656 115.288C313.323 115.434 312.964 115.51 312.601 115.511H307.317C306.66 115.507 306.028 115.257 305.546 114.81C305.063 114.364 304.765 113.754 304.709 113.099C303.576 100.464 293.534 90.3089 280.933 89.2731C280.273 89.2258 279.656 88.9305 279.206 88.4468C278.756 87.963 278.505 87.3266 278.505 86.6657V81.397C278.505 81.0332 278.58 80.6733 278.725 80.3398C278.87 80.0062 279.082 79.7062 279.349 79.4584C279.615 79.2106 279.929 79.0204 280.273 78.8996C280.616 78.7787 280.98 78.7299 281.343 78.7562C299.41 80.1509 313.865 94.6059 315.244 112.673Z" fill="#EBAF00"/>
<path d="M280.731 136.642L284.706 132.667C284.972 132.401 284.972 131.969 284.705 131.703L262.42 109.417C262.154 109.151 261.723 109.151 261.457 109.417L257.482 113.392C257.216 113.658 257.216 114.09 257.482 114.356L279.767 136.641C280.033 136.908 280.465 136.908 280.731 136.642Z" fill="#1E1E1E"/>
<path d="M286.135 128.98L265.27 108.116C264.84 107.686 264.671 107.059 264.83 106.471C264.986 105.883 265.446 105.423 266.034 105.266L288.968 103.196C289.556 103.038 290.184 103.207 290.614 103.637C291.044 104.067 291.212 104.695 291.054 105.282L288.985 128.217C288.906 128.511 288.752 128.772 288.544 128.981C288.336 129.189 288.074 129.342 287.78 129.422C287.192 129.579 286.565 129.41 286.135 128.98Z" fill="#1E1E1E"/>
</g>
<defs>
<clipPath id="clip0_310_43">
<rect width="84" height="84" fill="white" transform="translate(247 63)"/>
</clipPath>
</defs>
</svg>
